# xmcd
#
# Track frame offsets:
#	150
#	13987
#	23178
#	35510
#	45954
#	57030
#	66606
#	77769
#	89191
#	101514
#	112341
#	123045
#	134480
#	147152
#	159207
#	169062
#	179226
#	191586
#	202966
#	211743
#	223276
#	236479
#
# Disc length: 3287 seconds
#
# Revision: 1
# Processed by: cddbd v1.5.2PL0 Copyright (c) Steve Scherf et al.
# Submitted via: audiograbber 1.83.01
#
DISCID=460cd516
DTITLE=The Narrow Way Quartet - Pure Gospel Volume 1
DYEAR=1997
DGENRE=Gospel Country
TTITLE0=Lord, I'm Depending On You
TTITLE1=Where the Soul Never Dies
TTITLE2=What a Wonderful Time
TTITLE3=God's Wonderful Love
TTITLE4=My Savior's Love
TTITLE5=You Better Get Right
TTITLE6=Nearing the Shore
TTITLE7=Glimpse of Heaven
TTITLE8=My Real Home
TTITLE9=We'll Soon Be Done With Troubles and Trials
TTITLE10=I Wanna Be Ready
TTITLE11=That Heavenly Home
TTITLE12=If I Knew of a Land
TTITLE13=I Love The Lord
TTITLE14=House of Gold
TTITLE15=Pray, Pray, Pray
TTITLE16=No Other Way
TTITLE17=When the Savior Reaches Down
TTITLE18=Lord, Lead Me On
TTITLE19=Will You Truly Promise Me
TTITLE20=Rose of Sharon
TTITLE21=Shoutin' Ground
EXTD=
EXTT0=
EXTT1=
EXTT2=
EXTT3=
EXTT4=
EXTT5=
EXTT6=
EXTT7=
EXTT8=
EXTT9=
EXTT10=
EXTT11=
EXTT12=
EXTT13=
EXTT14=
EXTT15=
EXTT16=
EXTT17=
EXTT18=
EXTT19=
EXTT20=
EXTT21=
PLAYORDER=
